# xmcd
#
# Track frame offsets: 
#        150
#        21186
#        38600
#        52745
#        72729
#        88293
#        103807
#        123485
#        141292
#        150477
#        172878
#        193401
#        206462
#        237101
#
# Disc length: 3196 seconds
#
# Revision: 0
# Processed by: cddbd v1.5.2PL0 Copyright (c) Steve Scherf et al.
# Submitted via: ExactAudioCopy v0.99pb3
#
DISCID=c20c7a0e
DTITLE=Da Hausmeister Effekt - Probefahrt in der Rotunde
DYEAR=2001
DGENRE=Country
TTITLE0=Sonja hat Sommersprossen
TTITLE1=Lange her
TTITLE2=Salsa Jenney Lopez
TTITLE3=Auf der Strasse
TTITLE4=Herzschmerzmusik
TTITLE5=Nagel zu meinem Sarg
TTITLE6=Frühstück
TTITLE7=Den Mann mit der Karte gibt es nicht
TTITLE8=Eine Nacht
TTITLE9=Wer nichts wird
TTITLE10=Alles geht
TTITLE11=Hardcore Jazz
TTITLE12=Bonus
TTITLE13=Video
EXTD=
EXTT0=
EXTT1=
EXTT2=
EXTT3=
EXTT4=
EXTT5=
EXTT6=
EXTT7=
EXTT8=
EXTT9=
EXTT10=
EXTT11=
EXTT12=
EXTT13=
PLAYORDER=
